<svg width="207" height="68" viewBox="0 0 207 68" fill="none" xmlns="http://www.w3.org/2000/svg">
<path d="M7.65781 19.3C6.35115 19.3 5.20448 19.02 4.21781 18.46C3.24448 17.8867 2.49115 17.0533 1.95781 15.96C1.42448 14.8667 1.15781 13.5467 1.15781 12C1.15781 10.4533 1.42448 9.13333 1.95781 8.04C2.49115 6.94667 3.24448 6.12 4.21781 5.56C5.20448 4.98667 6.35115 4.7 7.65781 4.7C8.96448 4.7 10.1045 4.98667 11.0778 5.56C12.0645 6.12 12.8245 6.94667 13.3578 8.04C13.8911 9.13333 14.1578 10.4533 14.1578 12C14.1578 13.5467 13.8911 14.8667 13.3578 15.96C12.8245 17.0533 12.0645 17.8867 11.0778 18.46C10.1045 19.02 8.96448 19.3 7.65781 19.3ZM7.65781 18.9C8.17781 18.9 8.65781 18.68 9.09781 18.24C9.55115 17.8 9.92448 17.0667 10.2178 16.04C10.5111 15.0133 10.6578 13.6667 10.6578 12C10.6578 10.3333 10.5111 8.98667 10.2178 7.96C9.92448 6.93333 9.55115 6.2 9.09781 5.76C8.65781 5.32 8.17781 5.1 7.65781 5.1C7.13781 5.1 6.65115 5.32 6.19781 5.76C5.75781 6.2 5.39115 6.93333 5.09781 7.96C4.80448 8.98667 4.65781 10.3333 4.65781 12C4.65781 13.6667 4.80448 15.0133 5.09781 16.04C5.39115 17.0667 5.75781 17.8 6.19781 18.24C6.65115 18.68 7.13781 18.9 7.65781 18.9ZM16.0625 19V18.7L17.2625 18.4V5.6L16.0625 5.3V5H21.7625V5.3L20.5625 5.6V11.8H24.8625V5.6L23.6625 5.3V5H29.3625V5.3L28.1625 5.6V18.4L29.3625 18.7V19H23.6625V18.7L24.8625 18.4V12.3H20.5625V18.4L21.7625 18.7V19H16.0625ZM32.1555 19.3C31.5688 19.3 31.0888 19.1333 30.7155 18.8C30.3421 18.4533 30.1555 18.02 30.1555 17.5C30.1555 16.9933 30.3088 16.5867 30.6155 16.28C30.9221 15.96 31.3021 15.8 31.7555 15.8C31.8621 15.8 31.9688 15.8133 32.0755 15.84C32.1821 15.8533 32.2555 15.86 32.2955 15.86L32.5555 15.9V18.7C32.9955 18.5667 33.3688 18.1667 33.6755 17.5C33.9955 16.82 34.1888 15.6533 34.2555 14L34.6555 5.7L33.2555 5.3V5H43.5555V5.3L42.3555 5.6V18.4L43.5555 18.7V19H37.8555V18.7L39.0555 18.4V5.5H35.2555L34.8555 14C34.7488 15.9067 34.4555 17.2667 33.9755 18.08C33.4955 18.8933 32.8888 19.3 32.1555 19.3ZM44.1547 18.7L45.7547 18.1L51.2547 4.8H51.8547L57.5547 18.4L58.5547 18.7V19H56.1547C55.4614 19 54.8947 18.8467 54.4547 18.54C54.0147 18.22 53.688 17.8067 53.4747 17.3L52.4547 14.9H47.6747L46.3547 18.1L47.8547 18.7V19H44.1547V18.7ZM47.8747 14.4H52.2547L50.0547 9.14L47.8747 14.4ZM65.9484 3.6C64.9218 3.6 64.1618 3.44 63.6684 3.12C63.1884 2.8 62.9484 2.39333 62.9484 1.9C62.9484 1.55333 63.0618 1.26667 63.2884 1.04C63.5151 0.813333 63.8018 0.7 64.1484 0.7C64.1751 0.7 64.3284 0.719999 64.6084 0.759999L64.8484 0.799999V3C64.8618 3 64.9551 3.03333 65.1284 3.1C65.3151 3.16667 65.5884 3.2 65.9484 3.2C66.3084 3.2 66.5751 3.16667 66.7484 3.1C66.9351 3.03333 67.0351 3 67.0484 3V0.799999L67.2884 0.759999C67.5684 0.719999 67.7218 0.7 67.7484 0.7C68.0951 0.7 68.3818 0.813333 68.6084 1.04C68.8351 1.26667 68.9484 1.55333 68.9484 1.9C68.9484 2.39333 68.7018 2.8 68.2084 3.12C67.7284 3.44 66.9751 3.6 65.9484 3.6ZM59.1484 19V18.7L60.3484 18.4V5.6L59.1484 5.3V5H64.8484V5.3L63.6484 5.6V15.7L68.3484 7.1V5.6L67.1484 5.3V5H72.8484V5.3L71.6484 5.6V18.4L72.8484 18.7V19H67.1484V18.7L68.3484 18.4V8.3L63.6484 16.9V18.4L64.8484 18.7V19H59.1484ZM74.8516 19V18.7L76.0516 18.4V5.6L74.8516 5.3V5H80.5516V5.3L79.3516 5.6V11.8H83.6516V5.6L82.4516 5.3V5H88.1516V5.3L86.9516 5.6V18.4L88.1516 18.7V19H82.4516V18.7L83.6516 18.4V12.3H79.3516V18.4L80.5516 18.7V19H74.8516ZM95.75 18.7L96.95 18.4V5.6L95.75 5.3V5H101.45V5.3L100.25 5.6V11.3H101.25C102.25 11.3 102.917 10.6667 103.25 9.4L103.95 6.8C104.11 6.18667 104.37 5.7 104.73 5.34C105.103 4.98 105.543 4.8 106.05 4.8C106.637 4.8 107.117 4.97333 107.49 5.32C107.863 5.65333 108.05 6.08 108.05 6.6C108.05 7.10667 107.897 7.52 107.59 7.84C107.283 8.14667 106.903 8.3 106.45 8.3C106.263 8.3 106.077 8.28667 105.89 8.26L105.65 8.2V5.4C105.423 5.45333 105.21 5.60667 105.01 5.86C104.81 6.1 104.657 6.41333 104.55 6.8L103.85 9.4C103.65 10.1333 103.383 10.6667 103.05 11C102.903 11.16 102.737 11.2933 102.55 11.4H103.05C104.677 11.4 105.677 11.9667 106.05 13.1L107.85 18.4L108.85 18.7V19H106.45C105.743 19 105.197 18.8533 104.81 18.56C104.423 18.2667 104.137 17.8467 103.95 17.3L102.05 11.8H100.25V18.4L101.45 18.7V19H95.75V18.7ZM115.959 19.3C114.652 19.3 113.505 19.02 112.519 18.46C111.545 17.8867 110.792 17.0533 110.259 15.96C109.725 14.8667 109.459 13.5467 109.459 12C109.459 10.4533 109.725 9.13333 110.259 8.04C110.792 6.94667 111.545 6.12 112.519 5.56C113.505 4.98667 114.652 4.7 115.959 4.7C117.265 4.7 118.405 4.98667 119.379 5.56C120.365 6.12 121.125 6.94667 121.659 8.04C122.192 9.13333 122.459 10.4533 122.459 12C122.459 13.5467 122.192 14.8667 121.659 15.96C121.125 17.0533 120.365 17.8867 119.379 18.46C118.405 19.02 117.265 19.3 115.959 19.3ZM115.959 18.9C116.479 18.9 116.959 18.68 117.399 18.24C117.852 17.8 118.225 17.0667 118.519 16.04C118.812 15.0133 118.959 13.6667 118.959 12C118.959 10.3333 118.812 8.98667 118.519 7.96C118.225 6.93333 117.852 6.2 117.399 5.76C116.959 5.32 116.479 5.1 115.959 5.1C115.439 5.1 114.952 5.32 114.499 5.76C114.059 6.2 113.692 6.93333 113.399 7.96C113.105 8.98667 112.959 10.3333 112.959 12C112.959 13.6667 113.105 15.0133 113.399 16.04C113.692 17.0667 114.059 17.8 114.499 18.24C114.952 18.68 115.439 18.9 115.959 18.9ZM124.363 19V18.7L125.563 18.4V5.6L124.363 5.3V5H130.063V5.3L128.863 5.6V11.8H133.163V5.6L131.963 5.3V5H137.663V5.3L136.463 5.6V18.4L137.663 18.7V19H131.963V18.7L133.163 18.4V12.3H128.863V18.4L130.063 18.7V19H124.363ZM142.156 18.7L143.356 18.4V5.5H141.056C141.056 6.31333 140.836 7.09333 140.396 7.84C140.21 8.14667 139.996 8.4 139.756 8.6H139.156V5H150.856V8.6H150.256C150.003 8.4 149.783 8.14667 149.596 7.84C149.17 7.12 148.956 6.34 148.956 5.5H146.656V18.4L147.856 18.7V19H142.156V18.7ZM152.352 18.7L153.552 18.4V5.6L152.352 5.3V5H157.952C160.165 5 161.752 5.36667 162.712 6.1C163.672 6.82 164.152 7.88667 164.152 9.3C164.152 10.7133 163.672 11.7867 162.712 12.52C161.752 13.24 160.165 13.6 157.952 13.6H156.852V18.4L158.052 18.7V19H152.352V18.7ZM157.952 13.1C158.792 13.1 159.465 12.78 159.972 12.14C160.492 11.5 160.752 10.5533 160.752 9.3C160.752 8.06 160.492 7.12 159.972 6.48C159.465 5.82667 158.792 5.5 157.952 5.5H156.852V13.1H157.952ZM172.248 19.3C170.941 19.3 169.794 19.02 168.808 18.46C167.834 17.8867 167.081 17.0533 166.548 15.96C166.014 14.8667 165.748 13.5467 165.748 12C165.748 10.4533 166.014 9.13333 166.548 8.04C167.081 6.94667 167.834 6.12 168.808 5.56C169.794 4.98667 170.941 4.7 172.248 4.7C173.554 4.7 174.694 4.98667 175.668 5.56C176.654 6.12 177.414 6.94667 177.948 8.04C178.481 9.13333 178.748 10.4533 178.748 12C178.748 13.5467 178.481 14.8667 177.948 15.96C177.414 17.0533 176.654 17.8867 175.668 18.46C174.694 19.02 173.554 19.3 172.248 19.3ZM172.248 18.9C172.768 18.9 173.248 18.68 173.688 18.24C174.141 17.8 174.514 17.0667 174.808 16.04C175.101 15.0133 175.248 13.6667 175.248 12C175.248 10.3333 175.101 8.98667 174.808 7.96C174.514 6.93333 174.141 6.2 173.688 5.76C173.248 5.32 172.768 5.1 172.248 5.1C171.728 5.1 171.241 5.32 170.788 5.76C170.348 6.2 169.981 6.93333 169.688 7.96C169.394 8.98667 169.248 10.3333 169.248 12C169.248 13.6667 169.394 15.0133 169.688 16.04C169.981 17.0667 170.348 17.8 170.788 18.24C171.241 18.68 171.728 18.9 172.248 18.9ZM180.847 19.3C180.26 19.3 179.78 19.1333 179.407 18.8C179.034 18.4533 178.847 18.02 178.847 17.5C178.847 16.9933 179 16.5867 179.307 16.28C179.614 15.96 179.994 15.8 180.447 15.8C180.554 15.8 180.66 15.8133 180.767 15.84C180.874 15.8533 180.947 15.86 180.987 15.86L181.247 15.9V18.7C181.687 18.5667 182.06 18.1667 182.367 17.5C182.687 16.82 182.88 15.6533 182.947 14L183.347 5.7L181.947 5.3V5H192.247V5.3L191.047 5.6V18.4L192.247 18.7V19H186.547V18.7L187.747 18.4V5.5H183.947L183.547 14C183.44 15.9067 183.147 17.2667 182.667 18.08C182.187 18.8933 181.58 19.3 180.847 19.3ZM194.246 18.7L195.446 18.4V5.6L194.246 5.3V5H199.946V5.3L198.746 5.6V10.6H200.046C202.259 10.6 203.846 10.96 204.806 11.68C205.766 12.3867 206.246 13.4267 206.246 14.8C206.246 16.1733 205.766 17.22 204.806 17.94C203.846 18.6467 202.259 19 200.046 19H194.246V18.7ZM200.046 18.5C200.886 18.5 201.559 18.1867 202.066 17.56C202.586 16.92 202.846 16 202.846 14.8C202.846 13.6 202.586 12.6867 202.066 12.06C201.559 11.42 200.886 11.1 200.046 11.1H198.746V18.5H200.046Z" fill="white"/>
<rect x="46.0005" y="52.812" width="32" height="1.54334" rx="0.771672" fill="#E3B873"/>
<rect x="128" y="52.812" width="32" height="1.54334" rx="0.771672" fill="#E3B873"/>
<path d="M119.851 48.7655L95.7306 39.8293C95.4221 39.7153 95.0793 39.8731 94.9655 40.1818C94.9653 40.1821 94.9653 40.1823 94.965 40.1826L92.2949 47.4507C92.1814 47.7595 92.3396 48.102 92.6484 48.2155H92.6489L95.4448 49.2421L94.8288 50.9204C94.7155 51.2292 94.8738 51.5712 95.1825 51.6847L100.775 53.738L100.364 54.8569C99.9908 55.8589 100.339 56.987 101.213 57.6032V60.6434H93.1974C92.8094 59.7564 92.0154 59.1123 91.0671 58.9158V57.6648C91.0671 57.3357 90.8006 57.069 90.4713 57.069H88.0694C87.7404 57.069 87.4736 57.3357 87.4736 57.6648V67.1965C87.4736 67.5258 87.7404 67.7923 88.0694 67.7923H90.4713C90.8006 67.7923 91.0671 67.5258 91.0671 67.1965V65.9457C92.0154 65.7489 92.8094 65.1051 93.1974 64.2178H101.213V64.8136C101.213 65.8007 102.013 66.601 103 66.601C103.988 66.601 104.788 65.8007 104.788 64.8136V58.214C105.329 57.9455 105.748 57.4797 105.956 56.9122L106.367 55.7934L111.4 57.6403C111.466 57.6645 111.535 57.6768 111.605 57.6768C111.855 57.6768 112.079 57.521 112.165 57.2865L112.388 56.6782C114.327 57.043 116.194 55.7672 116.558 53.8288C116.693 53.1125 116.606 52.3722 116.308 51.7072L119.919 49.8528C120.212 49.7028 120.328 49.3438 120.178 49.051C120.11 48.918 119.994 48.8155 119.854 48.7638L119.851 48.7655ZM102.405 58.146L102.898 58.3248C103.122 58.4053 103.358 58.4515 103.596 58.4618V60.6434H102.405V58.146ZM89.8758 66.601H88.6652V58.2605H89.8758V66.601ZM92.2586 63.0265C92.2576 63.7836 91.7806 64.4584 91.0671 64.7119V60.1496C91.7806 60.4029 92.2576 61.0777 92.2586 61.835V63.0265ZM93.4687 61.835H103.596V63.0265H93.4687V61.835ZM103 65.4094C102.671 65.4094 102.405 65.1426 102.405 64.8136V64.2178H103.596V64.8136C103.596 65.1426 103.329 65.4094 103 65.4094ZM105.249 55.3831L104.838 56.5019C104.611 57.119 103.927 57.4355 103.309 57.209L102.188 56.7985C101.571 56.5717 101.254 55.8872 101.481 55.2694C101.481 55.2694 101.481 55.2694 101.481 55.2691L101.892 54.1511L104.912 55.2596L105.249 55.3831ZM111.252 56.3184L96.1523 50.7736L96.5636 49.6548L105.511 52.9405C105.723 53.0175 105.96 52.9693 106.125 52.8152L107.797 51.2414L112.484 52.963L111.252 56.3184ZM115.28 53.9901C114.903 55.0079 113.887 55.6439 112.807 55.5391L113.728 53.0315L115.231 52.2572C115.466 52.8077 115.484 53.4273 115.28 53.9901ZM113.269 51.9302C113.238 51.9329 113.206 51.9384 113.176 51.9467L107.864 49.9963C107.652 49.9186 107.415 49.9668 107.25 50.1214L105.577 51.6954L93.6187 47.3042L95.8773 41.1544L118.168 49.4126L113.269 51.9302Z" fill="#E3B873"/>
<path d="M99.1292 47.7034L98.6038 49.1233M101.419 48.5434L100.894 49.9633M103.641 49.3699L103.116 50.7898" stroke="#E3B873" stroke-linecap="round"/>
</svg>
